# xmcd
#
# Track frame offsets:
#	150
#	12746
#	30052
#	50869
#	70892
#	86088
#	104793
#	125363
#	147912
#	163870
#	182998
#	197973
#	217064
#	231394
#	248688
#	266241
#	280557
#	296858
#	310316
#	329687
#
# Disc length: 4624 seconds
#
# Revision: 1
# Processed by: cddbd v1.5.2PL0 Copyright (c) Steve Scherf et al.
# Submitted via: audiograbber 1.83.01
#
DISCID=49120e14
DTITLE=Various Artist - CMAA - The Winners 2012 - CD1
DYEAR=2012
DGENRE=Country
TTITLE0=Shane Nicholson - Bad Machines
TTITLE1=O'Shea - Smash
TTITLE2=Keith Urban - Long Hot Summer
TTITLE3=Beccy Cole - Waitress
TTITLE4=Adam Harvey - You Don't Know My Love
TTITLE5=Aleyce Simmonds - Healing Hands Of Time
TTITLE6=The Bushwackers - I Am Australian
TTITLE7=Graeme Connors - The Mouth Of The River
TTITLE8=Jasmine Rae - Hunky Country Boys
TTITLE9=Graham Rodger - Son Of The Red Dirt Country
TTITLE10=Luke Dickens - True Love Never Dies
TTITLE11=Jetty Road - Serves You Right
TTITLE12=Kirtsy Akers and Bob Evans - In Spite Of Ourselves
TTITLE13=Carter and Carter - Dance In The Rain
TTITLE14=Beccy Cole and Kasey Chambers - Millionares
TTITLE15=Katrina Burgoyne - White Flag
TTITLE16=The Bobkatz - The Old HR
TTITLE17=Shane Nicholson and Paul Kelly - Whistling Cannonballs
TTITLE18=Dean Perret and Lee Kernaghan - Channel Country Ground
TTITLE19=James Blundell - Move Into The City
EXTD=
EXTT0=
EXTT1=
EXTT2=
EXTT3=
EXTT4=
EXTT5=
EXTT6=
EXTT7=
EXTT8=
EXTT9=
EXTT10=
EXTT11=
EXTT12=
EXTT13=
EXTT14=
EXTT15=
EXTT16=
EXTT17=
EXTT18=
EXTT19=
PLAYORDER=
